<svg width="68" height="49" viewBox="0 0 68 49" fill="none" xmlns="http://www.w3.org/2000/svg">
<path d="M67.7897 1.64553L67.4671 7.71144L56.0774 47.4302C53.1735 47.968 49.9362 48.2368 46.3655 48.2368C42.7947 48.2368 39.9769 48.097 37.9119 47.8174L34.7499 47.4947V38.7831H33.1689V47.4947C32.33 47.6238 31.2114 47.7636 29.8133 47.9142C28.4366 48.0863 25.8769 48.1831 22.1341 48.2046C18.3913 48.2261 14.9927 47.968 11.9382 47.4302L0.258122 7.19519L-1.38953e-06 1.64553C8.06636 0.548506 16.0144 0.548506 23.8442 1.64553V25.6188H25.3606V2.35537C28.1355 1.86063 30.9533 1.62402 33.8142 1.64553C36.6751 1.64553 38.8368 1.75308 40.2995 1.96819L42.5581 2.35537V25.6188H44.0101L44.0746 1.64553C51.6893 0.591527 59.5943 0.591527 67.7897 1.64553Z" fill="#1D1D1D"/>
</svg>
