<svg width="867" height="139" viewBox="0 0 867 139" fill="none" xmlns="http://www.w3.org/2000/svg">
<path d="M166.399 4.03925L165.607 18.9288L137.649 116.424C130.521 117.744 122.575 118.404 113.81 118.404C105.045 118.404 98.1286 118.061 93.0598 117.374L85.2982 116.582V95.1982H81.4174V116.582C79.3582 116.899 76.6126 117.242 73.1806 117.612C69.8014 118.034 63.5183 118.272 54.3311 118.325C45.1439 118.377 36.8015 117.744 29.304 116.424L0.633627 17.6616L2.82424e-05 4.03925C19.8 1.34646 39.3095 1.34646 58.5287 4.03925V62.8847H62.2511V5.78164C69.0622 4.56725 75.979 3.98645 83.0014 4.03925C90.0238 4.03925 95.3302 4.30325 98.9206 4.83125L104.465 5.78164V62.8847H108.029L108.187 4.03925C126.878 1.45205 146.282 1.45205 166.399 4.03925ZM193.644 2.53445C201.669 2.53445 207.979 3.96005 212.572 6.81124C217.166 9.60963 219.463 13.4376 219.463 18.2952C219.463 23.2584 217.219 27.1392 212.731 29.9376C208.243 32.6832 201.88 34.056 193.644 34.056C185.512 34.056 179.203 32.6832 174.715 29.9376C170.28 27.1392 168.062 23.2584 168.062 18.2952C168.062 13.4376 170.332 9.60963 174.873 6.81124C179.467 3.96005 185.724 2.53445 193.644 2.53445ZM217.72 116.424C211.015 117.638 203.675 118.245 195.703 118.245C187.73 118.245 181.42 117.955 176.774 117.374L169.804 116.424L169.963 34.2144C174.609 35.9568 179.388 37.1448 184.298 37.7784C189.261 38.412 193.644 38.5704 197.445 38.2536C201.3 37.9368 204.784 37.488 207.899 36.9072C211.067 36.2736 213.523 35.64 215.265 35.0064L217.72 34.2144V116.424ZM279.1 116.424V66.7655H275.14V116.424C273.503 116.741 271.259 117.084 268.408 117.453C265.557 117.823 259.96 118.061 251.618 118.166C243.328 118.325 235.276 117.744 227.462 116.424L227.62 34.848C236.702 34.0032 244.754 33.6072 251.776 33.66C258.851 33.7128 264.554 33.9504 268.883 34.3728L275.14 35.0064C274.507 35.5344 273.662 36.3792 272.606 37.5408C271.603 38.6496 270.23 41.0256 268.487 44.6687C266.798 48.2591 265.953 52.0079 265.953 55.9151H269.675C269.675 49.3151 271.946 43.7711 276.487 39.2832C281.027 34.7952 287.02 32.5512 294.465 32.5512C315.638 32.5512 326.25 44.1935 326.303 67.4783V116.424C310.094 119.117 294.359 119.117 279.1 116.424ZM435.916 44.7479C435.916 49.2887 435.361 53.3015 434.252 56.7863C433.196 60.2183 431.877 62.7527 430.293 64.3895C428.761 65.9735 427.177 67.2935 425.541 68.3495C423.904 69.3527 422.557 69.9599 421.501 70.1711L419.838 70.4879V73.1015C425.699 74.3159 429.897 76.9295 432.431 80.9422C434.965 84.9022 436.232 91.9246 436.232 102.009V116.265C428.788 117.48 421.026 118.061 412.948 118.008C404.922 118.008 398.692 117.691 394.257 117.057L387.762 116.265V90.2878H384.04V116.265C377.229 117.48 369.837 118.061 361.864 118.008C353.944 118.008 347.714 117.744 343.173 117.216L336.282 116.424L336.52 3.72245C345.179 2.77205 353.02 2.29685 360.042 2.29685C367.065 2.24405 372.846 2.48165 377.387 3.00965L384.04 3.88085V60.8255H387.762V34.3728C395.207 33.1584 402.916 32.5512 410.889 32.5512C418.914 32.5512 425.092 32.8152 429.421 33.3432L435.916 34.3728V44.7479ZM469.417 2.53445C477.443 2.53445 483.752 3.96005 488.346 6.81124C492.94 9.60963 495.236 13.4376 495.236 18.2952C495.236 23.2584 492.992 27.1392 488.504 29.9376C484.016 32.6832 477.654 34.056 469.417 34.056C461.286 34.056 454.976 32.6832 450.488 29.9376C446.053 27.1392 443.836 23.2584 443.836 18.2952C443.836 13.4376 446.106 9.60963 450.647 6.81124C455.24 3.96005 461.497 2.53445 469.417 2.53445ZM493.494 116.424C486.788 117.638 479.449 118.245 471.476 118.245C463.504 118.245 457.194 117.955 452.548 117.374L445.578 116.424L445.736 34.2144C450.383 35.9568 455.161 37.1448 460.072 37.7784C465.035 38.412 469.417 38.5704 473.219 38.2536C477.073 37.9368 480.558 37.488 483.673 36.9072C486.841 36.2736 489.296 35.64 491.039 35.0064L493.494 34.2144V116.424ZM589.246 78.9623C589.458 79.1735 589.827 79.7278 590.355 80.6254C590.883 81.4702 591.596 82.8958 592.494 84.9022C593.444 86.9086 594.21 89.0734 594.79 91.3966C595.424 93.7198 595.714 96.5974 595.662 100.029C595.609 103.409 595.028 106.814 593.919 110.246C584.732 115.526 571.321 118.193 553.686 118.245C545.343 118.245 538.004 117.348 531.668 115.553C525.385 113.757 520.369 111.487 516.62 108.741C512.924 105.943 509.862 102.59 507.433 98.683C505.057 94.723 503.473 90.8686 502.681 87.1198C501.889 83.3182 501.493 79.2527 501.493 74.9231C501.493 61.7231 505.796 51.3743 514.403 43.8767C523.062 36.3264 535.021 32.5512 550.28 32.5512C565.328 32.5512 576.416 35.4024 583.544 41.1048C590.672 46.7543 594.236 53.5391 594.236 61.4591C594.236 68.3759 591.358 73.4183 585.603 76.5863C579.901 79.7014 571.268 81.259 559.705 81.259C551.574 81.259 545.951 80.1766 542.835 78.0119L540.38 80.071C542.862 83.2918 549.356 84.9286 559.863 84.9814C565.249 84.9814 570.397 84.5062 575.307 83.5558C580.271 82.5526 583.835 81.4966 585.999 80.3878L589.246 78.9623ZM551.31 62.2511C550.623 61.5119 549.726 61.1423 548.617 61.1423C547.561 61.1423 546.69 61.4855 546.003 62.1719C545.317 62.8583 544.974 63.7559 544.974 64.8647C544.974 65.8151 545.317 66.6599 546.003 67.3991C546.69 68.0855 547.561 68.4287 548.617 68.4287C549.726 68.4287 550.623 68.0855 551.31 67.3991C552.049 66.6599 552.419 65.8151 552.419 64.8647C552.419 63.8087 552.049 62.9375 551.31 62.2511ZM694.028 2.21765C733.152 2.21765 752.741 19.2456 752.794 53.3015V116.424C748.781 117.744 741.732 118.457 731.648 118.562C721.246 118.773 710.977 118.113 700.839 116.582V53.3015H696.958V116.424C695.005 116.741 692.338 117.11 688.959 117.533C685.633 118.008 679.402 118.272 670.268 118.325C661.133 118.377 652.685 117.744 644.924 116.424V4.19765C664.565 2.87765 680.933 2.21765 694.028 2.21765ZM857.259 92.2678C857.575 92.6902 857.945 93.2974 858.367 94.0894C858.79 94.8286 859.687 96.4654 861.06 98.9998C862.433 101.534 863.41 104.095 863.991 106.682C864.571 109.269 865.205 112.622 865.891 116.741C866.631 120.859 866.551 124.872 865.654 128.779C861.219 131.155 853.695 133.32 843.082 135.273C832.522 137.28 822.12 138.283 811.877 138.283C794.031 138.283 781.253 136.039 773.544 131.551C765.888 127.063 762.06 120.674 762.06 112.385C762.06 106.629 763.618 101.957 766.733 98.3662C769.901 94.723 773.703 92.9014 778.138 92.9014L779.088 89.8126C774.231 88.2814 770.35 85.2718 767.446 80.7838C764.595 76.2959 763.169 70.9367 763.169 64.7063C763.169 55.3079 767.525 47.4935 776.237 41.2632C784.949 35.0328 797.146 31.9176 812.828 31.9176C817.052 31.9176 821.196 32.076 825.262 32.3928C829.38 32.7096 833.05 33.132 836.271 33.66C839.544 34.1352 842.633 34.6368 845.537 35.1648C848.494 35.6928 851.028 36.2736 853.14 36.9072C855.252 37.488 857.047 38.016 858.526 38.4912C860.057 38.9664 861.192 39.3624 861.931 39.6792L863.278 40.1544C863.911 48.9191 862.063 57.2615 857.734 65.1815C857.206 64.6535 856.361 64.0199 855.199 63.2807C854.091 62.4887 851.609 61.4591 847.755 60.1919C843.9 58.8719 839.887 58.2119 835.716 58.2119V61.4591C842.422 61.4591 847.939 62.9375 852.269 65.8943C856.651 68.8511 858.843 72.7055 858.843 77.4575C858.843 84.2686 854.671 89.5222 846.329 93.2182C838.039 96.9142 828.06 98.7622 816.392 98.7622C806.36 98.7622 799.152 97.6798 794.77 95.515L794.136 98.7622C798.36 101.244 805.673 102.485 816.075 102.485C824.311 102.485 832.179 101.561 839.676 99.7126C847.174 97.8646 853.035 95.383 857.259 92.2678ZM816.788 64.3103C816.101 63.5711 815.204 63.2015 814.095 63.2015C813.039 63.2015 812.141 63.5711 811.402 64.3103C810.716 64.9967 810.372 65.8151 810.372 66.7655C810.372 67.8215 810.716 68.7191 811.402 69.4583C812.141 70.1447 813.039 70.4879 814.095 70.4879C815.204 70.4879 816.101 70.1447 816.788 69.4583C817.474 68.7719 817.817 67.8743 817.817 66.7655C817.817 65.8151 817.474 64.9967 816.788 64.3103Z" fill="#1D1D1D"/>
</svg>
